<mxfile host="app.diagrams.net" agent="Mozilla/5.0 (Macintosh; Intel Mac OS X 10_15_7) AppleWebKit/537.36 (KHTML, like Gecko) Chrome/134.0.0.0 Safari/537.36" version="26.2.2">
  <diagram name="Page-1" id="pDk9vr802_jeIAjdHoX6">
    <mxGraphModel dx="-6143" dy="-2643" grid="1" gridSize="10" guides="1" tooltips="1" connect="1" arrows="1" fold="1" page="1" pageScale="1" pageWidth="827" pageHeight="1169" math="0" shadow="0">
      <root>
        <mxCell id="0" />
        <mxCell id="1" parent="0" />
        <mxCell id="CHw5sXFqTWTUKGDuxFs8-1" value="" style="endArrow=classic;html=1;rounded=0;" edge="1" parent="1">
          <mxGeometry width="50" height="50" relative="1" as="geometry">
            <mxPoint x="7840" y="3540" as="sourcePoint" />
            <mxPoint x="7840" y="4320" as="targetPoint" />
          </mxGeometry>
        </mxCell>
        <mxCell id="CHw5sXFqTWTUKGDuxFs8-2" value="Source Cluster" style="rounded=0;whiteSpace=wrap;html=1;" vertex="1" parent="1">
          <mxGeometry x="7580" y="3722.25" width="240" height="80" as="geometry" />
        </mxCell>
        <mxCell id="CHw5sXFqTWTUKGDuxFs8-3" value="用户写源集群" style="text;html=1;align=center;verticalAlign=middle;whiteSpace=wrap;rounded=0;" vertex="1" parent="1">
          <mxGeometry x="7560" y="3653" width="160" height="30" as="geometry" />
        </mxCell>
        <mxCell id="CHw5sXFqTWTUKGDuxFs8-4" value="&lt;h1 style=&quot;margin-top: 0px;&quot;&gt;&lt;font style=&quot;font-size: 18px;&quot;&gt;T1&lt;/font&gt;&lt;/h1&gt;&lt;p&gt;做的存量数据迁移。&lt;/p&gt;&lt;p&gt;迁移的是T1之前的数据，包括T1&lt;/p&gt;" style="text;html=1;whiteSpace=wrap;overflow=hidden;rounded=0;" vertex="1" parent="1">
          <mxGeometry x="7870" y="3600" width="180" height="120" as="geometry" />
        </mxCell>
        <mxCell id="CHw5sXFqTWTUKGDuxFs8-5" value="" style="endArrow=none;dashed=1;html=1;dashPattern=1 3;strokeWidth=2;rounded=0;entryX=0;entryY=0.5;entryDx=0;entryDy=0;" edge="1" parent="1" target="CHw5sXFqTWTUKGDuxFs8-4">
          <mxGeometry width="50" height="50" relative="1" as="geometry">
            <mxPoint x="7840" y="3660" as="sourcePoint" />
            <mxPoint x="7960" y="3870" as="targetPoint" />
          </mxGeometry>
        </mxCell>
        <mxCell id="CHw5sXFqTWTUKGDuxFs8-6" value="" style="endArrow=classic;html=1;rounded=0;exitX=0.5;exitY=1;exitDx=0;exitDy=0;entryX=0.25;entryY=0;entryDx=0;entryDy=0;dashed=1;" edge="1" parent="1" source="CHw5sXFqTWTUKGDuxFs8-3" target="CHw5sXFqTWTUKGDuxFs8-2">
          <mxGeometry width="50" height="50" relative="1" as="geometry">
            <mxPoint x="7910" y="3920" as="sourcePoint" />
            <mxPoint x="7960" y="3870" as="targetPoint" />
          </mxGeometry>
        </mxCell>
        <mxCell id="CHw5sXFqTWTUKGDuxFs8-7" value="&lt;h1 style=&quot;margin-top: 0px;&quot;&gt;&lt;font style=&quot;font-size: 18px;&quot;&gt;T2&lt;/font&gt;&lt;/h1&gt;&lt;p&gt;同时双写&lt;/p&gt;&lt;p&gt;所以T2以后的数据两个集群是一样的&lt;/p&gt;" style="text;html=1;whiteSpace=wrap;overflow=hidden;rounded=0;" vertex="1" parent="1">
          <mxGeometry x="7870" y="3839.25" width="210" height="120" as="geometry" />
        </mxCell>
        <mxCell id="CHw5sXFqTWTUKGDuxFs8-8" value="" style="endArrow=none;dashed=1;html=1;dashPattern=1 3;strokeWidth=2;rounded=0;entryX=0;entryY=0.5;entryDx=0;entryDy=0;" edge="1" parent="1" target="CHw5sXFqTWTUKGDuxFs8-7">
          <mxGeometry width="50" height="50" relative="1" as="geometry">
            <mxPoint x="7840" y="3999" as="sourcePoint" />
            <mxPoint x="7880" y="3670" as="targetPoint" />
          </mxGeometry>
        </mxCell>
        <mxCell id="CHw5sXFqTWTUKGDuxFs8-9" value="Source Cluster" style="rounded=0;whiteSpace=wrap;html=1;" vertex="1" parent="1">
          <mxGeometry x="7570" y="4031.62" width="240" height="80" as="geometry" />
        </mxCell>
        <mxCell id="CHw5sXFqTWTUKGDuxFs8-10" value="用户写源集群" style="text;html=1;align=center;verticalAlign=middle;whiteSpace=wrap;rounded=0;" vertex="1" parent="1">
          <mxGeometry x="7550" y="3962.37" width="160" height="30" as="geometry" />
        </mxCell>
        <mxCell id="CHw5sXFqTWTUKGDuxFs8-11" value="" style="endArrow=classic;html=1;rounded=0;exitX=0.5;exitY=1;exitDx=0;exitDy=0;entryX=0.25;entryY=0;entryDx=0;entryDy=0;dashed=1;" edge="1" parent="1" source="CHw5sXFqTWTUKGDuxFs8-10" target="CHw5sXFqTWTUKGDuxFs8-9">
          <mxGeometry width="50" height="50" relative="1" as="geometry">
            <mxPoint x="7900" y="4229.37" as="sourcePoint" />
            <mxPoint x="7950" y="4179.37" as="targetPoint" />
          </mxGeometry>
        </mxCell>
        <mxCell id="CHw5sXFqTWTUKGDuxFs8-12" value="Destination Cluster" style="rounded=0;whiteSpace=wrap;html=1;" vertex="1" parent="1">
          <mxGeometry x="7900" y="4031.62" width="240" height="80" as="geometry" />
        </mxCell>
        <mxCell id="CHw5sXFqTWTUKGDuxFs8-13" value="用户写新集群" style="text;html=1;align=center;verticalAlign=middle;whiteSpace=wrap;rounded=0;" vertex="1" parent="1">
          <mxGeometry x="7880" y="3962.37" width="160" height="30" as="geometry" />
        </mxCell>
        <mxCell id="CHw5sXFqTWTUKGDuxFs8-14" value="" style="endArrow=classic;html=1;rounded=0;exitX=0.5;exitY=1;exitDx=0;exitDy=0;entryX=0.25;entryY=0;entryDx=0;entryDy=0;dashed=1;" edge="1" parent="1" source="CHw5sXFqTWTUKGDuxFs8-13" target="CHw5sXFqTWTUKGDuxFs8-12">
          <mxGeometry width="50" height="50" relative="1" as="geometry">
            <mxPoint x="8230" y="4229.37" as="sourcePoint" />
            <mxPoint x="8280" y="4179.37" as="targetPoint" />
          </mxGeometry>
        </mxCell>
        <mxCell id="CHw5sXFqTWTUKGDuxFs8-15" value="&lt;h1 style=&quot;margin-top: 0px;&quot;&gt;&lt;font style=&quot;font-size: 18px;&quot;&gt;T3&lt;/font&gt;&lt;/h1&gt;&lt;p&gt;补齐T1-T2的数据（可以稍微扩充），用户择时下线源集群的写和表&lt;/p&gt;" style="text;html=1;whiteSpace=wrap;overflow=hidden;rounded=0;" vertex="1" parent="1">
          <mxGeometry x="7870" y="4140" width="198" height="120" as="geometry" />
        </mxCell>
        <mxCell id="CHw5sXFqTWTUKGDuxFs8-16" value="" style="endArrow=none;dashed=1;html=1;dashPattern=1 3;strokeWidth=2;rounded=0;entryX=0;entryY=0.5;entryDx=0;entryDy=0;" edge="1" parent="1" target="CHw5sXFqTWTUKGDuxFs8-15">
          <mxGeometry width="50" height="50" relative="1" as="geometry">
            <mxPoint x="7840" y="4200" as="sourcePoint" />
            <mxPoint x="7880" y="3909" as="targetPoint" />
          </mxGeometry>
        </mxCell>
        <mxCell id="CHw5sXFqTWTUKGDuxFs8-17" value="&lt;b&gt;&lt;font style=&quot;font-size: 28px;&quot;&gt;方案1&lt;/font&gt;&lt;/b&gt;" style="text;html=1;align=center;verticalAlign=middle;whiteSpace=wrap;rounded=0;" vertex="1" parent="1">
          <mxGeometry x="7670" y="3547.6400000000003" width="150" height="30" as="geometry" />
        </mxCell>
      </root>
    </mxGraphModel>
  </diagram>
</mxfile>
